<?xml version="1.0" standalone="no"?>
<!DOCTYPE svg PUBLIC "-//W3C//DTD SVG 20010904//EN"
 "http://www.w3.org/TR/2001/REC-SVG-20010904/DTD/svg10.dtd">
<svg version="1.0" xmlns="http://www.w3.org/2000/svg"
 width="1306.000000pt" height="347.000000pt" viewBox="0 0 1306.000000 347.000000"
 preserveAspectRatio="xMidYMid meet">

<g transform="translate(0.000000,347.000000) scale(0.100000,-0.100000)"
fill="#051d46" stroke="none">
<path d="M1498 3454 c-857 -117 -1499 -856 -1498 -1724 1 -747 479 -1405 1194
-1644 455 -152 977 -100 1395 138 476 272 782 721 866 1271 25 159 16 426 -19
591 -73 342 -228 628 -475 874 -125 124 -227 203 -372 286 -323 184 -718 259
-1091 208z m442 -28 c655 -79 1209 -533 1414 -1159 63 -191 80 -305 80 -532 0
-167 -3 -218 -22 -313 -61 -307 -197 -583 -400 -818 -177 -204 -459 -392 -717
-478 -205 -68 -340 -90 -560 -90 -183 0 -273 11 -430 51 -674 174 -1178 751
-1261 1443 -76 640 209 1261 746 1621 336 226 744 323 1150 275z"/>
<path d="M1600 3340 c-25 -4 -71 -11 -104 -15 -54 -6 -57 -8 -35 -19 21 -10
25 -22 36 -106 16 -133 16 -150 -2 -150 -8 0 -15 -4 -15 -10 0 -12 -4 -12 83
0 148 21 137 17 137 55 0 43 -10 44 -31 6 -20 -34 -73 -51 -94 -30 -7 8 -15
37 -17 64 -3 50 -3 50 29 53 23 2 35 -3 47 -20 16 -22 16 -21 16 23 0 54 -8
66 -27 39 -9 -12 -26 -20 -43 -20 -33 0 -44 23 -38 76 3 25 8 29 40 32 27 2
41 -2 57 -19 l21 -23 0 32 c0 38 -4 40 -60 32z"/>
<path d="M1758 3332 c22 -17 22 -19 13 -131 -6 -63 -12 -115 -13 -116 -2 -1
-12 -7 -23 -13 -18 -10 -16 -11 16 -12 20 0 51 -3 68 -6 20 -4 31 -3 31 5 0 6
-6 11 -14 11 -19 0 -23 17 -18 73 6 67 27 61 63 -20 34 -77 41 -83 89 -83 35
0 35 1 13 18 -27 21 -85 142 -68 142 21 0 45 36 45 68 0 58 -55 82 -185 82
l-40 0 23 -18z m132 -22 c40 -40 19 -100 -35 -100 l-35 0 6 48 c3 26 7 53 10
60 5 18 31 15 54 -8z"/>
<path d="M1343 3298 c-34 -11 -46 -31 -15 -26 14 2 18 -6 20 -42 2 -25 0 -70
-3 -100 l-7 -55 -39 45 c-22 25 -51 60 -66 78 -25 32 -25 33 -7 48 15 12 16
15 3 11 -10 -3 -37 -11 -60 -18 -51 -15 -72 -29 -42 -29 14 0 50 -33 109 -102
49 -56 92 -106 97 -112 15 -23 25 20 32 143 4 82 12 134 21 149 16 25 10 27
-43 10z"/>
<path d="M2082 3280 c-15 -15 -22 -33 -22 -59 0 -32 6 -45 34 -69 69 -61 78
-114 21 -128 -34 -9 -75 28 -75 68 0 34 -15 37 -24 6 -11 -41 -6 -53 23 -71
46 -27 97 -22 132 12 46 46 40 81 -22 140 -43 41 -51 54 -45 74 12 50 82 41
92 -13 7 -34 19 -32 27 6 4 22 0 28 -29 40 -47 20 -87 17 -112 -6z"/>
<path d="M2312 3234 c16 -19 15 -25 -27 -129 -25 -61 -45 -111 -45 -112 0 -1
-10 -3 -22 -5 -20 -3 -18 -6 16 -21 22 -10 51 -20 65 -23 25 -5 25 -5 7 10
-18 14 -17 19 27 128 39 96 49 113 66 111 51 -6 8 21 -84 53 -19 7 -19 6 -3
-12z"/>
<path d="M1020 3170 c-44 -23 -50 -29 -30 -30 21 0 33 -15 80 -105 48 -91 53
-107 42 -125 -16 -26 -8 -25 58 10 48 25 51 29 28 30 -25 0 -33 10 -78 100
-50 99 -59 130 -40 130 6 0 10 5 10 10 0 15 -9 12 -70 -20z"/>
<path d="M2467 3162 c-32 -33 -35 -47 -8 -32 27 14 54 13 76 -3 17 -13 14 -20
-46 -120 -56 -94 -66 -106 -86 -101 -35 9 -28 0 28 -35 55 -34 79 -41 59 -16
-17 21 -11 37 54 143 l57 92 30 -21 c26 -18 29 -25 23 -52 -5 -26 -4 -30 7
-20 8 6 23 26 33 44 16 27 16 31 3 26 -19 -7 -193 95 -189 111 4 20 -13 13
-41 -16z"/>
<path d="M876 3090 c-53 -40 -55 -44 -24 -36 24 5 33 -1 81 -61 30 -38 51 -69
47 -71 -4 -1 -57 11 -119 28 -61 16 -117 30 -124 30 -6 0 -28 -14 -47 -30 -34
-30 -34 -30 -8 -24 24 5 33 -2 99 -91 63 -86 71 -100 60 -117 -20 -32 -9 -29
39 13 44 38 45 39 15 33 -28 -5 -35 1 -93 75 -34 45 -59 81 -55 81 5 1 74 -16
155 -37 81 -21 150 -35 153 -31 4 4 -30 54 -74 113 -45 59 -81 110 -81 114 0
4 5 12 12 19 25 25 1 19 -36 -8z"/>
<path d="M1545 2984 c-181 -33 -336 -94 -483 -190 -118 -76 -308 -269 -381
-387 -226 -366 -253 -822 -72 -1203 128 -269 334 -478 596 -604 485 -235 1059
-137 1440 245 500 500 494 1311 -14 1798 -179 171 -381 279 -621 332 -107 23
-362 29 -465 9z m448 -40 c436 -90 783 -394 925 -809 44 -127 62 -246 62 -400
0 -162 -18 -269 -69 -415 -66 -188 -155 -324 -310 -473 -235 -226 -510 -336
-842 -337 -221 0 -361 31 -548 122 -251 123 -443 317 -567 573 -222 460 -137
1003 214 1377 191 202 477 347 749 378 100 11 295 4 386 -16z"/>
<path d="M946 2493 c-33 -161 -45 -414 -27 -570 46 -405 224 -765 526 -1067
98 -98 255 -226 277 -226 25 0 185 118 269 198 214 203 372 456 462 737 41
130 61 238 78 431 12 145 7 259 -23 450 l-12 74 -772 0 -772 0 -6 -27z m523
-72 c17 -37 40 -104 51 -147 21 -85 42 -285 32 -296 -12 -12 -412 65 -561 109
l-54 15 6 112 c3 61 11 148 18 194 l12 82 232 0 232 0 32 -69z m231 37 c-41
-45 -44 -60 -20 -105 11 -21 20 -46 20 -57 0 -19 -1 -18 -23 2 -27 25 -69 29
-87 7 -8 -9 -10 -28 -6 -50 8 -39 22 -53 39 -36 18 18 28 12 21 -14 -4 -17 -2
-25 7 -25 10 -1 9 -5 -3 -14 -31 -23 -17 -76 20 -76 8 0 21 -8 29 -17 13 -17
14 -17 9 2 -2 11 -1 38 4 60 8 35 9 32 7 -27 -3 -73 9 -88 33 -44 7 15 23 26
39 28 21 2 27 9 29 36 2 19 -1 32 -8 32 -8 0 -10 9 -6 24 4 17 1 28 -9 33 -12
7 -12 13 -2 33 14 28 47 40 47 17 0 -20 34 -15 38 5 4 21 -25 48 -51 48 -13 0
-33 -7 -45 -16 -20 -14 -22 -14 -22 3 1 10 7 29 15 43 22 38 18 74 -10 100
-14 13 -25 27 -25 32 0 4 59 8 131 8 101 0 130 -3 126 -12 -3 -7 -22 -50 -42
-95 -42 -96 -62 -183 -71 -313 -5 -71 -11 -98 -24 -107 -9 -6 -42 -73 -74
-148 -32 -74 -60 -134 -61 -133 -2 2 -29 63 -60 136 -32 72 -64 132 -71 132
-13 0 -17 28 -29 180 -7 96 -29 185 -71 283 l-32 77 134 0 135 0 -31 -32z
m780 -30 c6 -35 14 -124 17 -199 l6 -136 -49 -16 c-106 -34 -267 -66 -518
-101 l-39 -5 7 92 c13 163 47 287 109 395 l19 32 218 0 218 0 12 -62z m-749 2
c5 0 9 5 9 12 0 6 9 3 20 -7 24 -22 25 -47 4 -80 -9 -14 -16 -45 -16 -74 1
-28 -3 -53 -9 -56 -5 -4 -10 24 -11 67 l-2 73 -6 -80 c-6 -79 -6 -79 -9 -20
-1 33 -8 71 -16 85 -19 34 -19 61 2 90 15 21 18 22 21 8 2 -10 8 -18 13 -18z
m-79 -131 c19 -10 54 -76 45 -86 -3 -2 -13 13 -23 34 -15 29 -25 38 -44 38
-21 0 -25 -4 -23 -25 l2 -25 -12 24 c-9 20 -8 25 8 37 23 17 21 17 47 3z m202
-5 c9 -8 16 -18 16 -22 0 -3 -5 -1 -12 6 -7 7 -23 12 -35 12 -18 0 -29 -10
-43 -42 -15 -33 -20 -38 -20 -20 0 23 49 82 69 82 5 0 17 -7 25 -16z m-200
-30 c9 -8 16 -22 16 -30 0 -11 -7 -9 -30 8 -16 12 -30 25 -30 30 0 14 28 9 44
-8z m63 -70 c-3 -3 -12 -4 -19 -1 -8 3 -5 6 6 6 11 1 17 -2 13 -5z m-33 -79
c-4 -8 -12 -15 -19 -15 -21 0 -25 26 -8 50 l16 23 8 -21 c5 -12 6 -29 3 -37z
m65 -17 c1 -16 -3 -28 -9 -28 -6 0 -10 24 -9 53 1 41 3 47 9 27 4 -14 8 -37 9
-52z m57 27 c-1 -19 -36 -36 -36 -17 0 6 -3 19 -6 29 -3 10 1 7 10 -7 l16 -25
-7 34 c-6 31 -5 33 9 21 8 -8 15 -24 14 -35z m-737 -79 c96 -24 226 -51 397
-81 91 -16 91 -17 92 -47 1 -24 -5 -32 -31 -43 -46 -19 -48 -24 -32 -62 15
-36 51 -72 73 -73 17 0 15 -17 -3 -24 -8 -3 -15 -2 -15 2 0 5 -7 17 -15 28
-14 17 -14 15 0 -13 8 -18 18 -33 21 -33 15 0 44 22 39 30 -3 4 7 5 21 1 39
-10 85 -113 70 -156 -23 -63 -52 -110 -82 -130 -30 -20 -31 -22 -13 -34 11 -6
22 -25 26 -42 4 -23 10 -28 22 -23 9 3 24 9 34 11 22 7 22 15 -3 55 -21 34
-26 68 -11 68 4 0 16 -20 26 -45 9 -25 24 -52 32 -61 14 -14 17 -13 28 13 7
15 16 36 19 46 3 10 10 16 15 12 6 -3 5 -22 -3 -48 -11 -39 -15 -42 -47 -42
-18 0 -49 -8 -66 -18 -34 -18 -45 -34 -17 -23 8 3 12 2 9 -4 -3 -6 -15 -10
-27 -10 -14 0 -18 5 -14 16 3 9 0 25 -8 36 -8 11 -12 27 -9 34 3 8 0 14 -6 14
-6 0 -11 -5 -11 -11 0 -5 -4 -8 -9 -5 -5 4 -7 45 -5 93 l4 86 -92 -6 c-102 -7
-234 -28 -346 -56 l-73 -18 -15 36 c-47 111 -89 312 -101 470 -6 88 -5 94 11
88 10 -4 62 -18 115 -31z m1428 -68 c-4 -51 -13 -133 -22 -183 -20 -116 -75
-306 -90 -311 -7 -3 -47 4 -91 15 -84 22 -224 45 -336 56 l-68 7 0 -61 c0 -34
-5 -63 -12 -67 -7 -4 -8 -3 -4 4 4 8 0 12 -11 12 -20 0 -35 20 -76 100 l-27
55 27 67 c24 57 31 67 48 62 18 -5 19 -4 3 9 -11 9 -14 18 -8 28 7 11 12 6 21
-19 6 -18 20 -37 30 -43 17 -9 22 -5 35 26 8 20 12 40 9 45 -4 6 -2 10 3 10 9
0 32 43 32 60 0 5 -9 14 -20 20 -14 7 -20 7 -20 0 0 -5 7 -10 15 -10 19 0 18
-8 -1 -40 -8 -14 -13 -18 -11 -9 6 19 -18 79 -32 79 -7 0 -6 10 0 30 6 17 12
30 14 30 2 0 76 11 166 25 159 25 338 63 389 84 42 17 43 15 37 -81z m-617
-43 c0 -8 -26 -77 -58 -152 -33 -76 -61 -145 -64 -153 -4 -12 -7 -10 -16 6 -9
18 -1 44 51 167 34 81 68 147 75 147 6 0 12 -7 12 -15z m-216 -147 c37 -84 71
-161 76 -170 7 -13 5 -18 -11 -23 -15 -5 -19 -13 -15 -29 3 -11 1 -28 -4 -36
-15 -24 -25 16 -12 46 10 21 2 45 -58 183 -39 88 -70 164 -70 170 0 6 6 11 14
11 8 0 41 -62 80 -152z m-67 42 c21 -49 19 -62 -5 -38 -7 7 -12 20 -12 30 0
10 -7 21 -15 24 -18 7 -20 34 -2 34 6 0 22 -23 34 -50z m301 38 c-6 -18 -28
-21 -28 -4 0 9 7 16 16 16 9 0 14 -5 12 -12z m-372 -35 c-4 -9 -2 -21 4 -28 7
-8 7 -16 2 -19 -12 -7 -36 49 -27 64 9 15 27 1 21 -17z m34 3 c0 -3 -4 -8 -10
-11 -5 -3 -10 -1 -10 4 0 6 5 11 10 11 6 0 10 -2 10 -4z m299 -37 c-20 -12
-22 -4 -8 23 12 21 13 21 17 4 2 -10 -2 -22 -9 -27z m-269 -33 c0 -3 -4 -8
-10 -11 -5 -3 -10 -1 -10 4 0 6 5 11 10 11 6 0 10 -2 10 -4z m37 -22 c-9 -9
-28 6 -21 18 4 6 10 6 17 -1 6 -6 8 -13 4 -17z m277 -9 c-7 -17 -20 -20 -28
-6 -7 10 3 21 20 21 8 0 11 -6 8 -15z m-139 -164 c10 -18 -17 -23 -33 -7 -15
15 -15 16 5 16 12 0 24 -4 28 -9z m-219 -83 c-4 -29 -13 -111 -21 -183 -14
-131 -61 -405 -71 -414 -10 -10 -176 194 -246 304 -46 70 -138 247 -138 263 0
19 318 78 438 81 l43 1 -5 -52z m242 35 c5 -18 -23 -16 -39 3 -11 14 -10 15
11 12 13 -1 25 -9 28 -15z m233 3 c124 -8 359 -59 359 -79 0 -23 -112 -238
-167 -319 -55 -83 -200 -258 -213 -258 -11 0 -69 396 -86 593 -5 63 -4 76 7
73 8 -2 53 -7 100 -10z m-267 -39 c8 -31 -7 -81 -25 -85 -9 -1 -21 8 -28 21
-10 19 -9 30 5 65 18 45 36 45 48 -1z m-64 6 c0 -22 -2 -25 -10 -13 -13 20
-13 40 0 40 6 0 10 -12 10 -27z m131 -29 c18 -20 42 -39 52 -43 17 -6 17 -8 3
-20 -13 -11 -23 -5 -66 35 -27 25 -50 51 -50 55 0 20 28 7 61 -27z m-181 -26
c0 -6 7 -19 16 -29 18 -20 12 -49 -10 -49 -20 0 -29 30 -14 48 11 13 10 15 -4
10 -21 -9 -31 2 -17 19 14 16 29 17 29 1z m190 -63 c-4 -11 -10 -19 -14 -17
-3 1 -13 2 -21 2 -12 0 -14 7 -9 28 10 42 15 45 34 25 11 -12 15 -25 10 -38z
m89 -145 c12 -91 30 -212 41 -270 l18 -105 -44 -41 c-24 -23 -82 -68 -128 -99
l-85 -58 -83 66 c-46 36 -102 83 -125 104 l-42 38 24 115 c13 63 32 177 42
253 10 82 22 137 28 137 18 0 35 -22 35 -46 0 -48 53 -54 71 -8 4 13 17 24 27
24 32 0 122 -30 122 -41 0 -6 12 -9 28 -7 24 3 27 7 27 43 0 35 12 72 20 63 1
-2 12 -77 24 -168z m-70 104 c-6 -8 -9 -18 -5 -21 4 -4 12 -1 17 7 9 13 10 13
6 0 -2 -8 -11 -16 -20 -18 -20 -4 -22 24 -5 65 11 27 12 27 16 5 2 -13 -2 -30
-9 -38z m-34 6 c4 -6 -5 -10 -19 -10 -14 0 -26 5 -26 10 0 6 9 10 19 10 11 0
23 -4 26 -10z"/>
<path d="M1806 2243 c-3 -3 -6 -11 -6 -16 0 -6 3 -7 7 -4 3 4 12 2 19 -4 17
-14 45 -4 39 13 -6 14 -48 22 -59 11z"/>
<path d="M1667 2133 c-4 -3 -7 -11 -7 -17 0 -6 5 -5 12 2 6 6 9 14 7 17 -3 3
-9 2 -12 -2z"/>
<path d="M1111 1943 c-34 -41 -38 -59 -17 -88 7 -11 16 -33 20 -49 l7 -28 -27
21 c-31 24 -53 26 -78 8 -26 -19 -14 -97 15 -97 10 0 19 5 19 11 0 5 5 7 11 4
6 -4 8 -14 5 -22 -4 -9 -2 -21 4 -28 8 -9 6 -14 -5 -19 -22 -8 -19 -53 6 -66
11 -7 23 -9 26 -6 4 3 15 -8 25 -25 18 -30 20 -31 39 -14 10 10 19 25 19 33 0
9 6 12 16 8 34 -13 61 43 34 70 -6 6 -7 25 -4 42 5 26 9 30 20 21 20 -16 50
-3 35 15 -7 8 -10 19 -9 26 2 6 -4 17 -14 23 -21 14 -44 -4 -63 -47 -7 -17
-14 -25 -14 -18 -2 26 30 72 54 78 33 8 57 -12 49 -40 -5 -16 -3 -18 6 -10 18
18 8 47 -22 63 -25 14 -29 14 -57 -7 -30 -22 -31 -22 -31 -2 0 11 9 37 20 57
10 20 16 41 13 47 -15 25 -58 76 -65 76 -3 0 -20 -17 -37 -37z m38 -10 c1 21
9 22 33 0 21 -19 23 -45 6 -76 -6 -12 -17 -51 -24 -87 l-12 -65 -3 80 -3 80
-6 -80 c-6 -71 -7 -74 -8 -25 -1 33 -10 70 -22 93 -21 38 -20 47 9 80 15 18
16 18 22 0 7 -17 8 -17 8 0z m-52 -172 c24 -36 29 -51 14 -51 -5 0 -11 13 -14
29 -10 48 -77 69 -77 24 0 -15 1 -15 13 2 13 17 15 17 35 -3 12 -12 22 -30 22
-39 0 -16 -1 -16 -12 0 -7 9 -24 18 -37 20 -27 4 -36 19 -27 43 10 27 58 13
83 -25z m165 4 c0 -6 -9 -14 -18 -20 -10 -5 -24 -17 -31 -25 -11 -12 -11 -10
-2 15 10 30 27 47 42 42 5 -1 9 -7 9 -12z m-122 -75 c0 -5 -4 -10 -9 -10 -6 0
-13 5 -16 10 -3 6 1 10 9 10 9 0 16 -4 16 -10z m30 0 c0 -5 -4 -10 -10 -10 -5
0 -10 5 -10 10 0 6 5 10 10 10 6 0 10 -4 10 -10z m-66 -58 c5 -32 -13 -49 -32
-30 -11 11 -5 35 12 54 14 15 16 13 20 -24z m36 -19 c0 -38 -3 -54 -10 -47 -9
9 -3 104 6 104 2 0 4 -26 4 -57z m21 -46 c-8 -8 -11 5 -10 49 l1 59 10 -48 c8
-35 7 -52 -1 -60z m67 57 c2 -32 -26 -39 -40 -9 -8 18 -8 28 1 39 16 19 36 3
39 -30z"/>
<path d="M1086 1623 c-6 -14 -5 -15 5 -6 7 7 10 15 7 18 -3 3 -9 -2 -12 -12z"/>
<path d="M1190 1638 c0 -9 5 -20 10 -23 13 -8 13 5 0 25 -8 13 -10 13 -10 -2z"/>
<path d="M2268 1945 c-31 -36 -35 -70 -13 -99 8 -11 15 -31 15 -44 l0 -23 -26
20 c-35 28 -60 26 -79 -3 -12 -19 -14 -30 -6 -44 6 -11 8 -22 4 -25 -13 -13
28 -19 43 -6 14 11 15 10 13 -6 -2 -11 0 -26 5 -33 5 -8 4 -18 -3 -25 -24 -24
0 -90 27 -73 6 3 17 -5 26 -19 30 -45 42 -32 39 43 -2 59 -1 62 7 27 5 -22 6
-49 4 -60 -5 -19 -4 -19 9 -3 8 10 17 15 20 12 3 -3 15 -1 26 6 25 13 29 58 6
66 -10 4 -13 14 -9 33 7 29 24 53 24 33 0 -7 9 -12 19 -12 29 0 41 78 15 97
-21 16 -60 9 -85 -13 -15 -13 -16 -12 -11 13 3 15 11 37 18 48 8 11 14 27 14
36 0 19 -51 88 -65 88 -5 0 -22 -15 -37 -34z m41 -10 c1 18 3 17 28 -8 l27
-27 -22 -45 c-13 -26 -23 -68 -24 -98 -1 -43 -3 -39 -8 28 l-6 80 -3 -80 -3
-80 -10 65 c-5 36 -16 75 -23 87 -20 30 -19 43 7 70 21 22 23 23 29 6 7 -16 8
-16 8 2z m-66 -152 c8 -10 18 -31 21 -48 l6 -30 -14 31 c-21 44 -44 61 -64 47
-10 -6 -16 -16 -14 -23 1 -6 -2 -9 -8 -5 -17 11 8 45 34 45 13 0 30 -8 39 -17z
m192 -12 c0 -18 -6 -25 -25 -28 -14 -2 -31 -11 -37 -20 -12 -15 -13 -15 -13
-1 0 9 9 26 20 39 20 24 20 24 36 4 16 -20 16 -20 12 0 -2 11 -11 21 -20 23
-20 4 -58 -35 -58 -60 0 -10 -4 -18 -10 -18 -13 0 -13 6 1 33 21 41 42 58 68
55 20 -2 26 -9 26 -27z m-213 -3 c8 -7 18 -24 21 -38 5 -21 4 -22 -6 -9 -7 8
-20 18 -29 22 -10 3 -18 13 -18 22 0 18 11 19 32 3z m38 -72 c0 -3 -4 -8 -10
-11 -5 -3 -10 -1 -10 4 0 6 5 11 10 11 6 0 10 -2 10 -4z m30 -6 c0 -5 -4 -10
-10 -10 -5 0 -10 5 -10 10 0 6 5 10 10 10 6 0 10 -4 10 -10z m40 0 c0 -5 -4
-10 -10 -10 -5 0 -10 5 -10 10 0 6 5 10 10 10 6 0 10 -4 10 -10z m-84 -50 c-3
-19 -2 -29 4 -25 6 3 10 2 10 -4 0 -15 -14 -21 -29 -12 -14 9 -12 39 4 58 16
19 18 15 11 -17z m54 -27 c0 -42 -3 -54 -11 -46 -11 11 -5 103 7 103 2 0 4
-26 4 -57z m82 16 c4 -9 2 -21 -4 -27 -14 -14 -38 -4 -38 15 0 13 2 13 17 2
15 -13 15 -12 5 8 -16 30 -16 48 1 31 7 -7 16 -20 19 -29z"/>
<path d="M1691 1115 c-37 -42 -37 -44 -11 -95 11 -22 20 -46 20 -55 0 -14 -4
-13 -26 4 -31 24 -53 26 -78 8 -26 -19 -14 -97 15 -97 10 0 19 5 19 10 0 6 5
10 11 10 6 0 8 -9 4 -20 -4 -12 -2 -27 4 -34 9 -10 8 -15 -4 -20 -8 -3 -15
-14 -15 -25 0 -24 28 -54 41 -45 6 3 17 -2 25 -12 14 -18 15 -18 10 1 -2 11
-1 38 4 60 8 35 9 32 7 -27 -2 -51 0 -68 10 -68 7 0 19 11 25 25 6 14 16 24
22 22 22 -8 46 14 46 43 0 15 -5 30 -10 32 -6 2 -8 17 -4 36 5 26 9 30 20 21
14 -12 46 -5 42 8 -1 4 2 18 6 31 6 17 3 29 -10 43 -22 25 -55 24 -82 -1 l-22
-21 0 24 c0 13 7 32 15 43 22 29 18 69 -11 103 -14 17 -29 31 -34 31 -4 0 -22
-16 -39 -35z m46 -7 c4 10 9 9 24 -4 23 -21 24 -52 3 -82 -9 -14 -16 -43 -16
-70 1 -26 -3 -54 -8 -62 -7 -10 -10 11 -12 65 l-2 80 -6 -80 c-6 -79 -6 -79
-8 -19 -1 35 -8 68 -17 80 -19 26 -19 63 2 86 13 14 19 16 26 6 7 -11 10 -10
14 0z m-67 -160 c11 -12 20 -25 20 -29 0 -4 3 -14 6 -23 3 -9 1 -16 -5 -16 -6
0 -11 8 -11 18 0 48 -58 81 -79 45 -9 -15 -10 -16 -11 -2 0 9 3 19 7 22 14 14
53 6 73 -15z m190 7 c16 -19 2 -37 -32 -42 -13 -2 -24 -8 -26 -13 -2 -6 -8
-10 -13 -10 -5 0 -3 14 6 30 17 32 45 41 45 13 0 -12 3 -14 11 -6 15 15 3 33
-20 33 -21 0 -40 -20 -58 -59 -10 -23 -11 -24 -12 -5 -2 53 69 95 99 59z
m-206 -27 c9 -12 16 -29 16 -37 0 -11 -5 -8 -16 7 -8 12 -19 20 -24 17 -9 -6
-21 20 -13 29 11 11 22 6 37 -16z m66 -62 c0 -11 -19 -15 -25 -6 -3 5 1 10 9
10 9 0 16 -2 16 -4z m-35 -65 c3 -28 1 -32 -18 -29 -26 4 -28 19 -8 47 18 25
20 23 26 -18z m64 -33 c1 -15 -3 -30 -9 -33 -6 -4 -10 16 -9 52 1 44 3 52 9
33 4 -14 8 -37 9 -52z m58 30 c2 -24 -26 -36 -38 -17 -15 23 -10 34 6 13 14
-18 14 -17 8 15 -5 30 -4 33 8 21 8 -7 16 -22 16 -32z"/>
<path d="M1666 793 c-6 -14 -5 -15 5 -6 7 7 10 15 7 18 -3 3 -9 -2 -12 -12z"/>
<path d="M2665 1884 c-58 -38 -80 -71 -80 -122 0 -79 79 -119 130 -67 30 29
33 75 7 98 -20 19 -67 23 -77 7 -3 -6 5 -10 18 -10 27 0 37 -16 37 -60 0 -53
-46 -63 -69 -14 -26 58 1 126 68 171 19 13 28 23 20 23 -8 0 -32 -12 -54 -26z"/>
<path d="M625 1865 c-20 -9 -24 -14 -12 -14 15 -1 17 -12 17 -77 0 -61 -4 -79
-17 -90 -16 -12 -11 -13 35 -14 28 0 52 5 52 10 0 6 -7 10 -15 10 -12 0 -15
17 -15 95 0 52 -3 95 -7 95 -5 -1 -21 -7 -38 -15z"/>
<path d="M754 1858 l-19 -21 26 17 c28 17 59 13 59 -9 0 -16 -23 -41 -51 -55
-29 -16 -23 -27 11 -22 17 2 37 -1 45 -8 21 -18 19 -64 -5 -85 -18 -16 -23
-17 -45 -5 -26 14 -42 9 -30 -9 9 -16 62 -13 89 4 30 20 50 67 41 94 -3 12
-18 27 -31 34 -25 13 -25 13 -5 31 16 14 18 23 10 37 -14 27 -70 25 -95 -3z"/>
<path d="M2760 1860 c0 -18 7 -20 60 -20 l59 0 -30 -67 c-43 -95 -50 -113 -41
-113 6 0 67 130 100 212 2 4 -30 8 -72 8 -69 0 -76 -2 -76 -20z"/>
<path d="M2697 2874 c-104 -51 -133 -62 -148 -53 -32 17 -21 -4 21 -38 37 -32
67 -46 42 -21 -20 20 -14 34 23 54 l34 18 30 -28 c29 -27 29 -28 13 -67 -12
-31 -19 -38 -34 -33 -28 8 -22 -2 23 -44 53 -48 60 -50 53 -15 -5 24 36 164
81 276 4 9 3 17 -1 16 -5 0 -67 -29 -137 -65z m63 2 c0 -13 -23 -66 -29 -66
-5 0 -16 9 -25 19 -17 19 -17 20 11 35 27 15 43 19 43 12z"/>
<path d="M576 2837 c-31 -40 -33 -52 -7 -35 17 10 27 6 73 -29 91 -71 122
-108 114 -138 -8 -32 -52 -75 -76 -75 -17 0 -73 39 -154 106 -31 26 -37 36
-31 55 8 27 7 26 -50 -39 -37 -42 -38 -43 -12 -37 22 6 39 -3 109 -59 46 -36
92 -66 104 -66 46 0 116 67 128 123 6 25 1 35 -36 71 -24 23 -65 60 -93 83
-43 35 -48 43 -36 57 8 10 9 16 3 16 -6 0 -22 -15 -36 -33z"/>
<path d="M2914 2725 c-23 -23 -24 -28 -18 -104 7 -79 7 -80 -19 -92 -57 -26
-100 43 -61 99 20 29 -1 30 -32 1 l-23 -22 19 -38 c37 -72 108 -92 156 -43 25
24 26 28 19 104 -6 73 -6 79 14 89 42 23 84 -26 61 -69 -16 -30 -3 -38 21 -13
20 19 20 22 5 51 -33 64 -98 81 -142 37z"/>
<path d="M358 2324 c-27 -13 -48 -29 -48 -35 0 -9 37 -88 46 -98 8 -9 104 43
104 56 0 15 -43 103 -50 102 -3 0 -26 -11 -52 -25z"/>
<path d="M3031 2300 l-31 -50 41 -26 c62 -39 64 -39 93 10 14 24 26 48 26 53
0 4 -22 20 -49 36 l-49 27 -31 -50z"/>
<path d="M242 1953 c-34 -16 -82 -70 -82 -91 0 -7 -8 -12 -18 -12 -23 0 -57
-35 -71 -73 -14 -36 -14 -97 -1 -97 6 0 10 12 10 26 0 15 12 38 29 55 33 33
51 37 51 12 0 -29 37 -81 69 -98 41 -21 110 -19 145 4 100 66 96 220 -8 270
-51 25 -80 26 -124 4z m137 -63 c21 -10 41 -26 45 -35 33 -88 -58 -164 -163
-135 -74 20 -116 95 -78 142 37 48 131 62 196 28z"/>
<path d="M3206 1949 c-16 -12 -31 -38 -37 -65 -7 -28 -21 -51 -36 -61 -22 -14
-25 -14 -43 2 -28 26 -25 60 8 84 l27 20 -27 1 c-37 0 -52 -29 -39 -76 14 -49
38 -74 73 -74 47 0 66 17 89 81 15 40 30 64 43 69 66 24 92 -58 34 -104 l-33
-26 31 0 c41 0 54 16 54 68 0 83 -82 130 -144 81z"/>
<path d="M3071 1719 c-1 -20 -4 -51 -7 -68 -4 -20 -3 -31 5 -31 6 0 11 7 11
15 0 17 39 19 165 8 64 -5 79 -9 83 -25 9 -35 20 -18 25 40 5 62 1 77 -14 49
-9 -15 -21 -17 -107 -12 -127 8 -137 10 -150 37 -10 21 -11 20 -11 -13z"/>
<path d="M400 1638 c0 -23 -4 -25 -111 -42 -78 -13 -98 -19 -116 -41 -27 -31
-30 -88 -9 -140 23 -54 42 -59 162 -39 102 17 105 17 119 -2 14 -17 14 -15 9
26 -7 48 -24 79 -24 43 0 -12 -4 -24 -8 -27 -5 -3 -53 -13 -107 -22 l-99 -17
-23 27 c-26 31 -31 87 -9 109 12 12 166 47 206 47 7 0 19 -8 27 -17 12 -16 13
-11 7 37 -6 52 -24 95 -24 58z"/>
<path d="M3058 1562 c-18 -21 -16 -108 2 -126 8 -9 30 -19 48 -22 31 -6 37 -3
85 50 55 59 83 69 111 40 9 -8 16 -23 16 -33 0 -22 -40 -61 -63 -61 -25 0 -29
-17 -4 -24 38 -10 46 -7 62 24 32 61 12 129 -42 147 -43 15 -75 1 -111 -47
-42 -55 -56 -64 -82 -50 -38 20 -21 90 22 90 27 0 22 17 -7 22 -15 3 -30 -1
-37 -10z"/>
<path d="M3022 1360 c-15 -48 -15 -72 -1 -47 5 9 18 17 27 17 21 0 152 -43
152 -50 0 -3 -53 -23 -118 -44 l-119 -39 -16 -44 c-16 -44 -13 -56 7 -28 10
14 23 12 106 -19 52 -19 103 -37 112 -41 9 -4 18 -19 20 -33 l4 -27 13 30 c7
17 15 44 17 60 4 25 3 27 -6 13 -6 -10 -19 -18 -28 -18 -22 0 -182 52 -182 60
0 3 65 27 145 54 80 27 145 52 145 56 0 8 -20 16 -165 68 -64 23 -81 33 -83
50 -5 33 -16 27 -30 -18z"/>
<path d="M458 1329 c-2 -20 -20 -30 -112 -63 -99 -35 -110 -37 -121 -23 -22
30 -23 7 -2 -48 18 -51 41 -78 30 -37 -4 16 13 25 109 59 103 37 115 39 131
25 22 -19 22 -9 -1 50 -22 58 -29 66 -34 37z"/>
<path d="M504 1188 c1 -31 -188 -145 -210 -127 -27 22 -26 1 2 -40 14 -23 28
-41 30 -41 1 0 2 12 1 27 -2 23 8 33 83 79 46 29 86 52 87 51 1 -2 -22 -68
-52 -147 -29 -80 -51 -148 -49 -152 3 -4 57 24 120 63 111 68 116 70 135 53
26 -23 24 -11 -7 42 -30 51 -36 54 -32 18 3 -23 -6 -32 -66 -70 -39 -24 -71
-42 -73 -40 -2 2 17 56 41 120 l46 117 -23 34 c-26 40 -34 44 -33 13z"/>
<path d="M2860 1025 c-28 -41 -54 -83 -57 -93 -6 -15 -5 -15 10 -3 15 12 29 6
118 -53 81 -54 100 -71 96 -87 -10 -37 9 -18 66 69 l57 87 -27 22 c-15 12 -29
21 -30 19 -2 -1 2 -17 8 -35 9 -26 8 -36 -6 -57 -25 -38 -40 -39 -89 -4 -45
30 -45 31 -30 55 10 15 27 25 47 27 l31 3 -42 28 c-51 33 -55 33 -40 2 9 -19
7 -29 -6 -50 -16 -24 -19 -25 -39 -12 -12 8 -32 20 -44 28 -13 8 -23 17 -23
21 0 18 54 67 78 70 l26 3 -26 18 -27 17 -51 -75z"/>
<path d="M624 891 c-57 -25 -96 -113 -77 -175 6 -18 8 -57 6 -87 -4 -48 -2
-59 26 -96 17 -24 38 -43 47 -43 13 0 12 5 -5 26 -14 18 -21 41 -21 70 0 47 5
51 34 29 29 -22 103 -19 143 6 47 29 66 71 61 134 -7 84 -60 137 -142 142 -28
1 -60 -1 -72 -6z m153 -41 c66 -61 17 -182 -85 -209 -78 -21 -136 32 -112 104
33 99 142 157 197 105z"/>
<path d="M2736 856 c-40 -50 -45 -62 -17 -44 16 10 31 2 110 -63 78 -62 91
-77 86 -96 -8 -35 6 -26 48 28 37 48 37 49 12 43 -21 -5 -40 6 -115 66 -77 62
-88 75 -79 91 18 35 -8 20 -45 -25z"/>
<path d="M2624 736 c-41 -41 -45 -85 -13 -117 19 -19 28 -21 78 -15 80 11 104
8 119 -11 19 -26 14 -51 -14 -69 -21 -14 -31 -15 -62 -6 -20 6 -37 10 -38 9
-2 -1 5 -13 15 -26 14 -18 24 -22 43 -18 69 18 104 87 74 146 -20 38 -53 47
-120 32 -59 -13 -82 -8 -92 21 -12 40 53 77 84 46 20 -20 26 1 7 22 -25 28
-42 25 -81 -14z"/>
<path d="M880 702 c0 -4 5 -13 10 -18 7 -7 -7 -37 -45 -95 -69 -105 -71 -132
-16 -182 23 -20 56 -39 76 -43 44 -8 59 5 133 111 37 54 53 69 70 68 31 -4 28
2 -15 32 -44 29 -63 33 -39 6 16 -17 13 -23 -44 -110 -56 -85 -62 -91 -93 -91
-41 0 -87 38 -87 72 0 13 25 61 56 107 44 65 60 82 75 78 32 -8 22 7 -26 41
-48 34 -55 37 -55 24z"/>
<path d="M2431 597 c-72 -44 -81 -52 -59 -55 36 -4 156 -195 138 -217 -7 -8
-9 -15 -5 -15 6 0 114 66 167 101 10 6 -10 69 -22 69 -5 0 -10 -17 -12 -37 -2
-29 -10 -41 -35 -56 l-32 -18 -35 48 -36 48 22 18 c21 18 32 18 71 2 15 -6 13
1 -10 39 -27 45 -28 46 -35 20 -6 -24 -33 -53 -50 -54 -10 0 -58 72 -58 86 0
19 72 44 93 32 10 -5 21 -7 24 -5 7 7 -20 47 -32 47 -5 -1 -48 -24 -94 -53z"/>
<path d="M1151 524 c15 -14 12 -25 -29 -124 -40 -95 -49 -109 -71 -112 -20 -2
-2 -13 74 -45 l100 -42 17 22 c26 33 24 52 -4 33 -26 -18 -61 -20 -89 -6 -24
13 -24 27 1 85 l20 46 29 -16 c20 -10 31 -24 33 -42 4 -26 5 -25 26 20 27 59
27 65 4 43 -15 -13 -24 -14 -50 -5 -37 13 -37 11 -16 66 11 28 23 43 34 43 26
0 70 -39 70 -61 0 -23 15 -25 24 -3 13 33 3 42 -82 78 -97 40 -114 44 -91 20z"/>
<path d="M2203 487 c-29 -11 -53 -24 -53 -29 0 -6 6 -8 14 -5 20 8 27 -4 69
-111 40 -100 44 -118 25 -125 -7 -2 -10 -7 -7 -11 4 -5 176 58 187 69 2 2 1
17 -3 34 -7 35 -25 42 -25 11 0 -27 -35 -60 -64 -60 -21 0 -29 13 -66 105 -35
87 -40 108 -30 120 20 24 9 24 -47 2z"/>
<path d="M1360 452 c0 -3 8 -10 17 -17 15 -11 15 -20 -8 -126 -22 -103 -26
-114 -49 -120 -14 -4 -23 -8 -20 -9 3 -1 52 -12 108 -24 l104 -23 9 24 c15 40
10 45 -20 22 -22 -16 -36 -19 -60 -14 -17 3 -33 11 -36 16 -7 11 3 90 14 107
12 19 66 -1 69 -26 5 -35 18 -25 29 23 11 48 8 52 -20 31 -9 -7 -29 -11 -43
-8 -25 5 -26 7 -20 50 3 26 10 50 15 55 16 16 77 -12 91 -41 l13 -27 8 29 c5
17 6 32 3 35 -8 8 -204 49 -204 43z"/>
<path d="M2027 436 c-106 -29 -159 -137 -104 -216 46 -68 140 -89 217 -50 33
17 40 26 40 50 0 36 -17 40 -26 6 -8 -35 -37 -57 -73 -58 -44 -1 -75 18 -100
62 -63 113 25 241 124 180 36 -22 44 -15 25 21 -12 22 -35 23 -103 5z"/>
<path d="M1721 399 c-54 -11 -81 -30 -108 -76 -20 -35 -24 -51 -18 -80 18 -98
125 -156 224 -122 26 9 31 16 31 42 l0 31 -27 -33 c-52 -60 -134 -36 -162 48
-18 57 -7 107 34 148 44 44 82 44 131 1 l37 -33 -7 30 c-8 33 -21 44 -51 46
-11 0 -27 2 -35 3 -8 2 -30 -1 -49 -5z"/>
<path d="M4714 2478 c-72 -78 -54 -90 42 -28 66 43 68 47 58 74 -12 30 -42 16
-100 -46z"/>
<path d="M8921 2483 c-28 -32 -51 -61 -51 -65 0 -18 39 -4 90 30 42 29 55 44
55 62 0 18 -6 26 -21 28 -15 2 -36 -13 -73 -55z"/>
<path d="M5047 2374 c-67 -21 -122 -78 -143 -150 -51 -175 51 -314 230 -314
94 0 142 14 150 43 11 43 7 48 -22 27 -60 -45 -153 -38 -206 15 -87 87 -62
285 44 340 53 27 107 18 157 -28 l23 -20 6 31 c9 44 8 45 -29 59 -44 16 -152
15 -210 -3z"/>
<path d="M5423 2370 c-46 -28 -66 -64 -67 -120 -1 -62 23 -95 96 -135 79 -42
98 -62 98 -101 0 -40 -30 -64 -80 -64 -39 1 -61 14 -80 49 -14 27 -23 18 -34
-35 -6 -26 -3 -32 19 -42 45 -20 145 -15 189 11 70 40 96 129 57 193 -12 20
-47 46 -93 71 -42 22 -79 51 -88 66 -13 24 -13 28 6 54 12 15 31 29 43 31 32
5 79 -17 86 -39 9 -29 20 -23 32 16 11 33 10 36 -17 50 -42 22 -128 19 -167
-5z"/>
<path d="M7690 2370 c-114 -53 -166 -159 -140 -286 9 -43 22 -67 52 -100 52
-57 113 -77 217 -73 97 5 160 39 206 113 27 44 30 58 30 131 0 73 -3 87 -30
130 -43 69 -104 99 -210 103 -64 2 -89 -2 -125 -18z m180 -35 c15 -8 39 -31
52 -52 32 -53 33 -188 2 -248 -58 -111 -204 -114 -248 -5 -24 61 -21 182 5
238 36 74 118 103 189 67z"/>
<path d="M8869 2326 c-12 -34 -54 -139 -94 -233 l-73 -173 34 0 c31 0 33 3 48
53 24 79 23 78 112 75 l79 -3 21 -64 22 -63 56 -2 c31 0 56 2 56 5 0 3 -17 46
-38 95 -21 49 -62 152 -91 230 -51 135 -54 141 -81 141 -26 0 -31 -6 -51 -61z
m56 -149 c14 -37 25 -72 25 -77 0 -6 -27 -10 -60 -10 -33 0 -60 2 -60 5 0 2 9
28 21 57 12 29 25 64 30 77 12 30 13 29 44 -52z"/>
<path d="M10632 2375 c-88 -27 -144 -92 -163 -188 -21 -104 18 -191 108 -244
39 -22 62 -28 133 -31 47 -2 112 1 143 8 l57 11 0 63 c0 35 3 78 6 95 l7 31
-54 0 -54 0 3 -76 c4 -89 0 -94 -72 -94 -66 0 -120 31 -146 85 -27 56 -27 161
0 214 53 104 172 132 254 60 l34 -29 11 32 c10 28 9 35 -6 45 -45 34 -181 43
-261 18z"/>
<path d="M4200 2148 l0 -233 52 1 53 2 -4 99 -3 100 66 5 c51 4 74 12 101 32
77 59 65 184 -22 217 -13 5 -74 9 -134 9 l-109 0 0 -232z m189 166 c46 -58 15
-145 -56 -159 l-33 -7 0 96 0 96 34 0 c25 0 40 -7 55 -26z"/>
<path d="M4577 2149 l2 -231 127 0 127 -1 2 27 c1 26 1 26 -77 26 l-78 0 0 86
0 86 75 -4 75 -3 0 28 0 27 -75 0 -75 0 0 71 0 70 78 -2 c77 -2 77 -2 80 24
l3 27 -133 0 -133 0 2 -231z"/>
<path d="M5720 2148 l0 -233 55 0 55 0 0 233 0 232 -55 0 -55 0 0 -232z"/>
<path d="M6090 2355 c0 -24 2 -25 66 -25 l66 0 -3 -206 -4 -206 53 -2 52 -1 0
208 0 207 60 0 c57 0 60 1 60 25 l0 25 -175 0 -175 0 0 -25z"/>
<path d="M6522 2198 c3 -175 4 -185 27 -217 34 -47 91 -71 174 -71 101 0 158
32 188 105 6 17 14 105 18 198 l6 167 -32 0 -33 0 0 -152 c0 -175 -8 -217 -51
-252 -52 -44 -140 -30 -175 27 -17 28 -19 51 -19 205 l0 172 -53 0 -53 0 3
-182z"/>
<path d="M7047 2151 l2 -231 98 -5 c175 -8 256 25 307 126 21 42 26 67 26 124
0 93 -27 149 -91 185 -41 23 -56 25 -194 28 l-150 4 2 -231z m273 151 c51 -51
66 -106 52 -191 -17 -104 -63 -149 -160 -158 l-62 -6 0 197 0 196 66 0 c63 0
68 -2 104 -38z"/>
<path d="M8176 2353 c-3 -16 -12 -80 -21 -143 -14 -108 -29 -201 -41 -261 -4
-23 -1 -27 25 -31 36 -5 36 -4 46 160 10 164 11 164 93 -10 39 -84 77 -153 83
-153 15 0 16 2 95 168 36 76 68 136 71 134 2 -3 10 -72 16 -153 l12 -147 55 0
c41 1 54 4 53 14 -5 28 -53 429 -53 439 0 5 -13 10 -30 10 -29 0 -33 -6 -104
-155 -41 -85 -79 -155 -84 -155 -5 0 -42 70 -83 155 -68 143 -76 155 -101 155
-21 0 -28 -6 -32 -27z"/>
<path d="M9210 2211 c0 -92 -3 -195 -6 -228 l-7 -60 32 -5 31 -5 0 164 0 163
69 -72 c37 -40 103 -112 146 -160 64 -72 84 -88 107 -88 l28 0 0 123 c0 68 3
172 7 230 l6 107 -31 0 -31 0 -3 -156 -3 -157 -140 156 c-126 140 -143 156
-172 157 l-33 0 0 -169z"/>
<path d="M9770 2245 l71 -135 -2 -96 -2 -97 54 0 53 0 -3 102 -3 101 43 77
c23 43 55 102 71 131 l29 52 -31 0 c-29 0 -33 -5 -69 -82 -64 -136 -59 -135
-115 -19 l-48 101 -60 0 -59 0 71 -135z"/>
<path d="M10145 2147 l0 -232 128 0 127 0 0 28 0 27 -75 0 -75 0 0 86 0 86 75
-4 75 -3 0 27 0 28 -75 0 -75 0 0 71 0 71 75 -4 75 -3 0 28 0 27 -127 0 -128
0 0 -233z"/>
<path d="M11057 2243 l74 -138 -6 -95 -6 -95 55 0 56 0 0 108 0 108 65 119
c36 66 65 122 65 125 0 3 -12 5 -28 5 -25 0 -32 -9 -76 -101 -56 -117 -51
-118 -112 16 l-39 85 -61 0 -62 0 75 -137z"/>
<path d="M11430 2148 l0 -233 127 1 128 2 3 26 3 26 -80 0 -81 0 0 86 0 86 80
-4 80 -3 0 27 0 28 -80 0 -80 0 0 48 c0 92 2 94 86 90 l74 -3 0 28 0 27 -130
0 -130 0 0 -232z"/>
<path d="M11740 2355 c0 -24 3 -25 60 -25 l61 0 -1 -206 -2 -207 52 0 52 0 -2
208 -1 207 61 -4 c60 -3 60 -3 60 25 l0 27 -170 0 -170 0 0 -25z"/>
<path d="M12150 2148 l0 -233 127 1 128 2 3 26 3 26 -80 0 -81 0 0 86 0 86 80
-4 80 -3 0 27 0 28 -80 0 -80 0 0 58 c0 81 4 84 89 80 l71 -3 0 28 0 27 -130
0 -130 0 0 -232z"/>
<path d="M12516 2258 c-9 -68 -24 -171 -34 -230 l-18 -108 31 0 32 0 7 88 c3
48 9 116 13 151 l6 65 79 -157 c43 -86 82 -157 87 -157 4 0 41 69 82 154 41
85 77 150 80 144 4 -6 10 -49 13 -97 4 -47 9 -111 12 -141 l5 -55 55 0 c54 0
55 1 51 25 -3 14 -15 113 -27 220 -12 107 -24 201 -26 208 -2 6 -16 12 -31 12
-26 0 -33 -10 -107 -162 l-79 -163 -79 163 c-75 151 -81 162 -107 162 l-28 0
-17 -122z"/>
<path d="M4200 1675 c0 -13 499 -15 4430 -15 3931 0 4430 2 4430 15 0 13 -499
15 -4430 15 -3931 0 -4430 -2 -4430 -15z"/>
<path d="M9864 1528 c-47 -50 -55 -63 -41 -66 19 -4 134 65 142 86 7 19 -6 42
-25 42 -9 0 -44 -28 -76 -62z"/>
<path d="M6753 1424 c-45 -23 -73 -71 -73 -127 0 -57 37 -104 106 -136 58 -28
94 -63 94 -94 0 -35 -39 -67 -82 -67 -38 0 -88 32 -88 56 0 31 -17 11 -27 -31
-10 -44 -10 -44 20 -55 47 -16 138 -12 177 8 50 25 80 75 80 133 0 59 -30 99
-104 136 -69 34 -96 61 -96 94 0 62 83 79 131 28 30 -32 36 -29 41 20 2 18 -4
28 -22 38 -34 18 -118 16 -157 -3z"/>
<path d="M8381 1426 c-119 -43 -185 -179 -147 -307 30 -105 115 -159 248 -159
111 0 189 45 233 133 64 129 5 286 -124 332 -51 18 -162 19 -210 1z m175 -45
c48 -29 69 -82 69 -176 0 -63 -5 -89 -23 -123 -39 -74 -122 -103 -192 -67
-101 52 -98 304 4 366 40 24 102 24 142 0z"/>
<path d="M10199 1426 c-93 -33 -148 -107 -156 -210 -13 -156 81 -256 241 -256
80 0 146 15 146 33 0 7 3 23 7 36 l6 25 -32 -23 c-40 -29 -106 -38 -155 -21
-134 44 -138 307 -5 375 52 27 107 17 156 -28 l23 -20 6 31 c4 17 6 35 5 39
-5 30 -176 43 -242 19z"/>
<path d="M10585 1430 c-11 -4 -33 -22 -50 -40 -26 -27 -30 -39 -30 -90 0 -69
20 -97 99 -137 92 -47 120 -99 76 -143 -29 -29 -94 -27 -124 3 -13 13 -25 30
-28 38 -8 21 -15 9 -23 -38 -6 -40 -5 -44 20 -53 35 -13 126 -13 162 1 43 16
82 59 94 102 19 72 -18 131 -111 177 -88 44 -112 88 -70 130 30 30 76 26 111
-10 l30 -29 9 25 c16 40 12 51 -21 63 -37 13 -115 13 -144 1z"/>
<path d="M4212 1246 c3 -168 5 -187 24 -213 34 -46 98 -73 176 -73 102 0 159
32 189 105 6 17 14 105 18 198 l6 167 -32 0 -33 0 0 -147 c0 -167 -9 -214 -50
-255 -33 -32 -79 -37 -134 -14 -56 23 -68 72 -64 259 l3 157 -53 0 -53 0 3
-184z"/>
<path d="M4740 1238 c0 -106 -3 -209 -6 -229 -6 -35 -5 -37 25 -41 l31 -5 0
166 1 166 65 -70 c35 -38 101 -112 146 -162 64 -73 88 -93 109 -93 l26 0 6
173 c4 94 7 198 7 230 0 56 0 57 -29 57 l-29 0 6 -155 c3 -88 1 -155 -4 -155
-5 0 -72 70 -148 155 -127 141 -142 155 -173 155 l-33 0 0 -192z"/>
<path d="M5267 1199 l2 -232 51 0 51 0 2 232 2 231 -55 0 -55 0 2 -231z"/>
<path d="M5543 1200 c91 -230 91 -230 122 -230 30 0 31 2 108 198 44 108 85
212 93 230 14 32 14 32 -15 32 -27 0 -32 -5 -51 -57 -69 -188 -104 -273 -110
-266 -6 6 -81 209 -115 311 -3 8 -25 12 -63 12 l-59 0 90 -230z"/>
<path d="M5940 1198 l0 -233 127 1 128 2 3 26 3 26 -80 0 -81 0 0 86 0 86 80
-4 80 -3 0 27 0 28 -80 0 -80 0 0 48 c0 92 2 94 86 90 l74 -3 0 28 0 27 -130
0 -130 0 0 -232z"/>
<path d="M6287 1199 l2 -232 52 0 52 0 -2 109 c-1 60 1 105 5 102 3 -4 34 -53
68 -109 l61 -102 58 -1 c34 -1 56 3 53 9 -2 6 -34 57 -70 114 l-66 105 28 12
c45 19 72 60 72 111 0 94 -33 113 -197 113 l-118 0 2 -231z m197 169 c9 -12
16 -42 16 -66 0 -53 -33 -92 -80 -92 l-30 0 0 90 0 90 39 0 c30 0 44 -6 55
-22z"/>
<path d="M7047 1199 l2 -232 51 0 51 0 2 232 2 231 -55 0 -55 0 2 -231z"/>
<path d="M7230 1405 c0 -24 3 -25 60 -25 l60 0 0 -207 0 -208 53 3 54 4 -5
204 -5 204 64 0 c62 0 64 1 64 25 l0 25 -172 0 -173 0 0 -25z"/>
<path d="M7687 1289 l75 -141 -7 -91 -7 -92 56 0 56 0 0 109 0 110 65 117 c36
65 65 121 65 124 0 3 -12 5 -28 5 -25 0 -32 -9 -76 -101 -56 -117 -51 -118
-112 16 l-39 85 -61 0 -62 0 75 -141z"/>
<path d="M8820 1198 l0 -233 52 1 52 2 -3 111 -3 112 78 -2 77 -2 1 26 2 27
-78 0 -78 0 0 71 0 71 80 -4 80 -3 0 28 0 27 -130 0 -130 0 0 -232z"/>
<path d="M9350 1198 l0 -233 51 1 52 2 -2 101 -2 101 48 0 c63 1 127 30 147
69 9 16 16 50 16 75 0 36 -6 52 -29 78 l-29 33 -126 3 -126 4 0 -234z m189
166 c39 -50 22 -126 -34 -149 -19 -8 -39 -15 -45 -15 -6 0 -10 36 -10 95 l0
95 34 0 c25 0 40 -7 55 -26z"/>
<path d="M9727 1200 l2 -231 126 -2 125 -2 0 28 0 27 -75 0 -75 0 0 86 0 86
75 -4 75 -3 0 28 0 27 -75 0 -75 0 0 71 0 71 75 -4 75 -3 0 28 0 27 -127 0
-128 0 2 -230z"/>
</g>
</svg>
